<?xml version="1.0" encoding="UTF-8" standalone="no"?>
<!-- Created with Inkscape (http://www.inkscape.org/) -->

<svg
   version="1.1"
   id="svg624"
   width="1639.7313"
   height="1639.7313"
   viewBox="0 0 1639.7314 1639.7313"
   sodipodi:docname="lost.svg"
   xml:space="preserve"
   inkscape:version="1.2 (dc2aeda, 2022-05-15)"
   xmlns:inkscape="http://www.inkscape.org/namespaces/inkscape"
   xmlns:sodipodi="http://sodipodi.sourceforge.net/DTD/sodipodi-0.dtd"
   xmlns:xlink="http://www.w3.org/1999/xlink"
   xmlns="http://www.w3.org/2000/svg"
   xmlns:svg="http://www.w3.org/2000/svg"><defs
     id="defs628"><linearGradient
       inkscape:collect="always"
       id="linearGradient11610"><stop
         style="stop-color:#ffffff;stop-opacity:1;"
         offset="0"
         id="stop11608" /><stop
         style="stop-color:#615790;stop-opacity:1;"
         offset="0.58218759"
         id="stop11616" /><stop
         style="stop-color:#140066;stop-opacity:0.60239422;"
         offset="1"
         id="stop11606" /></linearGradient><linearGradient
       inkscape:collect="always"
       id="linearGradient1068"><stop
         style="stop-color:#7a00ff;stop-opacity:1;"
         offset="0"
         id="stop1064" /><stop
         style="stop-color:#00ffeb;stop-opacity:1;"
         offset="1"
         id="stop1066" /></linearGradient><inkscape:perspective
       sodipodi:type="inkscape:persp3d"
       inkscape:vp_x="-413.01606 : 1050.3167 : 1"
       inkscape:vp_y="0 : 999.99999 : 0"
       inkscape:vp_z="1480.5665 : 1031.3181 : 1"
       inkscape:persp3d-origin="496.68746 : 977.48139 : 1"
       id="perspective3417" /><clipPath
       clipPathUnits="userSpaceOnUse"
       id="clipPath1730"><rect
         style="fill:#ff0000;fill-opacity:0.438789;stroke:none;stroke-width:0.333;stroke-linecap:round;stroke-linejoin:round;paint-order:markers stroke fill"
         id="rect1732"
         width="1076.4478"
         height="801.01532"
         x="143.76959"
         y="222.74092" /></clipPath><clipPath
       clipPathUnits="userSpaceOnUse"
       id="clipPath1730-3"><rect
         style="fill:#ff0000;fill-opacity:0.438789;stroke:none;stroke-width:0.333;stroke-linecap:round;stroke-linejoin:round;paint-order:markers stroke fill"
         id="rect1732-6"
         width="1076.4478"
         height="801.01532"
         x="143.76959"
         y="222.74092" /></clipPath><linearGradient
       inkscape:collect="always"
       xlink:href="#linearGradient1068"
       id="linearGradient1072"
       x1="169.91174"
       y1="720.12848"
       x2="1163.2866"
       y2="720.12848"
       gradientUnits="userSpaceOnUse"
       gradientTransform="translate(-82.391195,-135.92049)" /><filter
       inkscape:collect="always"
       style="color-interpolation-filters:sRGB"
       id="filter1082"
       x="-0.083112484"
       y="-0.083112484"
       width="1.166225"
       height="1.166225"><feGaussianBlur
         inkscape:collect="always"
         stdDeviation="19.175298"
         id="feGaussianBlur1084" /></filter><filter
       inkscape:collect="always"
       style="color-interpolation-filters:sRGB"
       id="filter1086"
       x="-0.021043233"
       y="-0.021043233"
       width="1.0420865"
       height="1.0420865"><feGaussianBlur
         inkscape:collect="always"
         stdDeviation="2.7140078"
         id="feGaussianBlur1088" /></filter><filter
       inkscape:collect="always"
       style="color-interpolation-filters:sRGB"
       id="filter1096"
       x="-0.15929088"
       y="-0.15929088"
       width="1.3185818"
       height="1.3185818"><feGaussianBlur
         inkscape:collect="always"
         stdDeviation="43.867444"
         id="feGaussianBlur1098" /></filter><linearGradient
       inkscape:collect="always"
       xlink:href="#linearGradient1068"
       id="linearGradient1103"
       gradientUnits="userSpaceOnUse"
       gradientTransform="translate(-82.391111,-135.92049)"
       x1="169.91174"
       y1="720.12848"
       x2="1163.2866"
       y2="720.12848" /><filter
       inkscape:collect="always"
       style="color-interpolation-filters:sRGB"
       id="filter1107"
       x="-0.34103271"
       y="-0.34103271"
       width="1.6820654"
       height="1.6820654"><feGaussianBlur
         inkscape:collect="always"
         stdDeviation="121.85401"
         id="feGaussianBlur1105" /></filter><radialGradient
       inkscape:collect="always"
       xlink:href="#linearGradient11610"
       id="radialGradient11612"
       cx="-1042.9365"
       cy="235.2828"
       fx="-1042.9365"
       fy="235.2828"
       r="176.97982"
       gradientTransform="matrix(1,0,0,0.9962079,0,0.89221679)"
       gradientUnits="userSpaceOnUse" /></defs><sodipodi:namedview
     id="namedview626"
     pagecolor="#192330"
     bordercolor="#192330"
     borderopacity="1"
     inkscape:showpageshadow="true"
     inkscape:pageopacity="1"
     inkscape:pagecheckerboard="false"
     inkscape:deskcolor="#3a3a3a"
     showgrid="false"
     inkscape:zoom="0.60993256"
     inkscape:cx="831.23944"
     inkscape:cy="879.60545"
     inkscape:window-width="1920"
     inkscape:window-height="1080"
     inkscape:window-x="0"
     inkscape:window-y="0"
     inkscape:window-maximized="1"
     inkscape:current-layer="g2167"
     borderlayer="true" /><g
     id="g1094"
     inkscape:label="ring"
     transform="translate(235.65761,235.65767)"
     style="display:inline"><circle
       style="display:none;opacity:1;fill:none;fill-opacity:0.438789;stroke:#000000;stroke-width:18.5428;stroke-linecap:round;stroke-linejoin:round;stroke-dasharray:none;stroke-opacity:1;paint-order:markers stroke fill"
       id="path2361"
       cx="584.20801"
       cy="584.20801"
       r="487.41605"
       inkscape:label="circle outline" /><circle
       style="display:inline;opacity:1;fill:none;fill-opacity:0.438789;stroke:#000000;stroke-width:100;stroke-linecap:round;stroke-linejoin:round;stroke-dasharray:none;stroke-opacity:1;paint-order:markers stroke fill;filter:url(#filter1096)"
       id="circle1015"
       cx="584.20801"
       cy="584.20801"
       r="487.41605"
       inkscape:label="shadow" /><circle
       style="display:inline;opacity:1;mix-blend-mode:normal;fill:none;fill-opacity:1;stroke:url(#linearGradient1072);stroke-width:70;stroke-linecap:round;stroke-linejoin:round;stroke-dasharray:none;stroke-dashoffset:0;stroke-opacity:1;paint-order:markers stroke fill;filter:url(#filter1082)"
       id="circle1019"
       cx="584.20801"
       cy="584.20801"
       r="487.41605"
       inkscape:label="color" /><circle
       style="display:inline;opacity:1;fill:none;fill-opacity:0.438789;stroke:#ffffff;stroke-width:28;stroke-linecap:round;stroke-linejoin:round;stroke-dasharray:none;stroke-opacity:1;paint-order:markers stroke fill;filter:url(#filter1086)"
       id="circle1017"
       cx="584.20801"
       cy="584.20801"
       r="487.41605"
       inkscape:label="white" /><circle
       style="display:inline;opacity:1;fill:#192330;fill-opacity:1;stroke:none;stroke-width:18.543;stroke-linecap:round;stroke-linejoin:round;stroke-dasharray:none;stroke-opacity:1;paint-order:markers stroke fill"
       id="circle10680"
       cx="584.20801"
       cy="584.20801"
       r="487.41605"
       inkscape:label="circle outline" /><circle
       style="display:inline;opacity:1;mix-blend-mode:normal;fill:none;fill-opacity:1;stroke:url(#linearGradient1103);stroke-width:80;stroke-linecap:round;stroke-linejoin:round;stroke-dasharray:none;stroke-dashoffset:0;stroke-opacity:1;paint-order:markers stroke fill;filter:url(#filter1107)"
       id="circle1100"
       cx="584.20807"
       cy="584.20801"
       r="487.41605"
       inkscape:label="color" /></g><g
     inkscape:groupmode="layer"
     inkscape:label="Image"
     id="g630"
     transform="translate(153.26641,99.737182)"
     style="display:inline"><g
       id="g2167"
       style="display:inline"
       inkscape:label="eye"><g
         id="g2146"
         transform="translate(1709.5357,484.84566)"
         style="display:inline;opacity:1;fill:url(#radialGradient11612);fill-opacity:1;stroke:none;stroke-opacity:1"
         inkscape:label="aperture"><path
           style="fill:url(#radialGradient11612);fill-opacity:1;stroke:none;stroke-width:1.33333;stroke-opacity:1"
           d="m -998.76537,187.83568 c -10.63343,-10.7253 -25.39093,-23.97462 -32.79463,-29.44295 -34.217,-25.27269 -73.4188,-43.10525 -114.2013,-51.94916 -7.881,-1.70905 -14.3188,-3.40737 -14.306,-3.77404 0.06,-1.72856 23.2325,-17.829078 33.5398,-23.303868 24.6097,-13.07149 46.9105,-19.07467 75.0954,-20.215 19.3574,-0.78317 36.0828,1.02413 52.95263,5.72191 l 7.6193,2.12176 2.1871,7.50427 c 9.5676,32.827438 13.0823,61.187288 12.3273,99.468918 -0.3186,16.15277 -1.1434,30.26868 -1.8328,31.36868 -0.9989,1.59378 -5.1803,-1.96075 -20.5868,-17.50052 z"
           id="path2134" /><path
           style="fill:url(#radialGradient11612);fill-opacity:1;stroke:none;stroke-width:1.33333;stroke-opacity:1"
           d="m -1216.5465,268.75924 c -0.3871,-1.0088 -1.4261,-8.04168 -2.3089,-15.62862 -5.6486,-48.54536 11.4974,-99.69318 45.7224,-136.39398 l 9.8845,-10.59955 7.9082,1.73544 c 36.721,8.05841 85.7326,30.88211 116.0865,54.05901 l 5.653,4.31635 -14.249,2.96055 c -21.223,4.40956 -49.0455,14.10693 -69.4556,24.20834 -32.8778,16.27198 -58.1537,34.95152 -84.332,62.32359 -9.2814,9.70465 -14.4492,14.21729 -14.9091,13.01887 z"
           id="path2136" /><path
           style="fill:url(#radialGradient11612);fill-opacity:1;stroke:none;stroke-width:1.33333;stroke-opacity:1"
           d="m -985.44337,272.03158 c 1.439,-3.65086 4.4422,-13.40086 6.6736,-21.66666 14.9233,-55.27851 13.8032,-113.48399 -3.2133,-166.983498 -2.5578,-8.04178 -4.4582,-14.81378 -4.2231,-15.04886 0.7676,-0.76763 14.5181,5.09289 26.6602,11.3627 38.7124,19.98983 69.8666,56.705378 83.27573,98.141198 6.54451,20.22339 7.42808,17.0981 -9.52703,33.69804 -25.2151,24.68692 -48.3297,41.08534 -80.9681,57.44218 -10.6334,5.3289 -19.7746,9.68981 -20.3139,9.69089 -0.5393,10e-4 0.1968,-2.98512 1.6359,-6.63599 z"
           id="path2138" /><path
           style="fill:url(#radialGradient11612);fill-opacity:1;stroke:none;stroke-width:1.33333;stroke-opacity:1"
           d="m -944.16217,359.3837 c -31.5965,-9.22172 -63.06143,-23.89492 -90.53973,-42.22198 -8.8159,-5.87983 -16.3117,-11.14835 -16.6575,-11.70782 -0.3457,-0.55948 5.7964,-2.35048 13.6493,-3.98 31.917,-6.62301 72.49343,-23.37265 99.61133,-41.11889 18.5636,-12.14817 37.7005,-28.20999 53.75181,-45.11448 l 14.64297,-15.42128 1.39103,9.09181 c 2.57089,16.8035 2.95019,26.88479 1.56435,41.58028 -3.80026,40.29834 -19.64004,75.35019 -47.79096,105.75652 -5.3458,5.77408 -8.0797,7.73898 -10.7028,7.69227 -1.9377,-0.0345 -10.4516,-2.08491 -18.9198,-4.55643 z"
           id="path2140" /><path
           style="fill:url(#radialGradient11612);fill-opacity:1;stroke:none;stroke-width:1.33333;stroke-opacity:1"
           d="m -1110.3208,398.80717 c -45.7523,-18.05397 -83.8468,-58.51676 -99.5513,-105.74044 -6.5942,-19.82868 -6.9444,-18.21064 6.8632,-31.70633 25.1714,-24.60278 53.6908,-44.77636 84.8901,-60.0481 10.2556,-5.02004 18.8114,-8.96248 19.0129,-8.76097 0.2015,0.20151 -1.6974,6.66661 -4.2198,14.36691 -9.6264,29.38664 -14.1064,58.69925 -14.1064,92.29712 0,31.92108 5.0968,63.80936 14.7752,92.44197 2.0473,6.05671 3.3104,10.99155 2.8069,10.96631 -0.5035,-0.0252 -5.2154,-1.74266 -10.4708,-3.81647 z"
           id="path2142" /><path
           style="fill:url(#radialGradient11612);fill-opacity:1;stroke:none;stroke-width:1.33333;stroke-opacity:1"
           d="m -1061.1257,410.52973 c -15.4053,-1.79132 -33.5083,-6.45389 -34.8452,-8.97465 -2.1502,-4.05444 -9.1734,-33.99628 -11.623,-49.55222 -2.5992,-16.506 -3.5441,-71.92597 -1.4363,-84.24553 l 1.0685,-6.24555 10.6771,11.90835 c 22.6761,25.29104 55.4666,50.32076 85.9634,65.61777 21.41593,10.74211 53.54313,21.73118 77.00933,26.34092 l 7.7868,1.52967 -3.1202,3.3394 c -4.0544,4.33932 -24.8496,18.25417 -34.3594,22.99121 -29.6416,14.76519 -64.88293,21.03927 -97.12103,17.29063 z"
           id="path2144" /></g><g
         id="g10629"
         inkscape:label="eye shape"
         style="display:inline"><path
           id="path1764"
           style="display:inline;fill:none;stroke:#cdcecf;stroke-width:30;stroke-dasharray:none;stroke-opacity:1"
           inkscape:label="eye lid"
           d="M 677.98164 495.77454 C 640.43796 495.54912 602.51396 502.3254 563.99336 516.0929 C 540.99374 524.3131 500.36763 544.54988 477.71601 559.06946 C 435.5212 586.25936 390.03535 626.45191 350.6125 666.14172 C 322.71125 695.87817 286.29623 740.3514 278.09101 754.71204 C 272.78877 763.99195 267.67822 779.79666 266.61054 790.2179 C 264.57967 810.04039 272.93415 829.08745 288.29414 839.6554 C 296.0483 844.9904 305.48126 848.22763 324.65156 852.13196 C 358.92773 859.11282 382.09818 866.87361 429.48554 887.24133 C 467.42048 903.54628 487.58312 911.47812 507.36445 917.88196 C 548.89061 931.3253 589.39818 939.54601 633.36445 943.45032 C 651.91695 945.09781 700.7108 943.99721 720.69843 941.48157 C 800.02516 931.4975 866.10309 901.91335 938.02461 844.18079 C 960.49568 826.14286 991.30178 795.9319 998.93867 784.44446 C 1021.5364 750.45254 1020.2305 707.7633 995.60273 675.43665 C 985.32114 661.9409 954.60572 629.38893 935.79804 612.05579 C 897.61218 576.86387 860.70085 550.84728 821.36445 531.39954 C 773.89342 507.93008 726.25208 496.06435 677.98164 495.77454 z M 666.59882 509.23938 A 210.88979 210.88979 0 0 1 877.48945 720.12805 A 210.88979 210.88979 0 0 1 666.59882 931.01868 A 210.88979 210.88979 0 0 1 455.71015 720.12805 A 210.88979 210.88979 0 0 1 666.59882 509.23938 z " /></g></g></g></svg>
